<svg xmlns="http://www.w3.org/2000/svg" xmlns:xlink="http://www.w3.org/1999/xlink" width="500" zoomAndPan="magnify" viewBox="0 0 375 374.999991" height="500" preserveAspectRatio="xMidYMid meet" version="1.0"><defs><g/></defs><rect x="-37.5" width="450" fill="#ffffff" y="-37.499999" height="449.999989" fill-opacity="1"/><rect x="-37.5" width="450" fill="#ffffff" y="-37.499999" height="449.999989" fill-opacity="1"/><g fill="#c93f1d" fill-opacity="1"><g transform="translate(128.771765, 165.393959)"><g><path d="M 10.625 -15.328125 L 15 -15.328125 L 9.453125 0 L 5.078125 0 L -0.453125 -15.328125 L 3.9375 -15.328125 L 7.28125 -5.140625 Z M 10.625 -15.328125 "/></g></g></g><g fill="#c93f1d" fill-opacity="1"><g transform="translate(146.400272, 165.393959)"><g><path d="M 1.53125 0 L 1.53125 -15.328125 L 5.4375 -15.328125 L 5.4375 0 Z M 1.53125 0 "/></g></g></g><g fill="#c93f1d" fill-opacity="1"><g transform="translate(156.415837, 165.393959)"><g><path d="M 10.9375 -15.328125 L 10.9375 -4.015625 C 10.9375 -2.710938 10.492188 -1.679688 9.609375 -0.921875 C 8.734375 -0.171875 7.4375 0.203125 5.71875 0.203125 C 4.21875 0.203125 3.035156 -0.09375 2.171875 -0.6875 C 1.316406 -1.28125 0.796875 -2.097656 0.609375 -3.140625 L 4.46875 -4.3125 C 4.519531 -3.988281 4.660156 -3.71875 4.890625 -3.5 C 5.117188 -3.28125 5.394531 -3.171875 5.71875 -3.171875 C 6.082031 -3.171875 6.390625 -3.300781 6.640625 -3.5625 C 6.898438 -3.820312 7.03125 -4.140625 7.03125 -4.515625 L 7.03125 -11.9375 L 2.0625 -11.9375 L 2.0625 -15.328125 Z M 10.9375 -15.328125 "/></g></g></g><g fill="#c93f1d" fill-opacity="1"><g transform="translate(171.617395, 165.393959)"><g><path d="M 10.8125 0 L 9.96875 -2.6875 L 4.59375 -2.6875 L 3.75 0 L -0.453125 0 L 5.078125 -15.328125 L 9.453125 -15.328125 L 15 0 Z M 5.59375 -5.84375 L 9 -5.84375 L 7.28125 -11.265625 Z M 5.59375 -5.84375 "/></g></g></g><g fill="#c93f1d" fill-opacity="1"><g transform="translate(189.245901, 165.393959)"><g><path d="M 14.234375 -15.328125 L 8.859375 -7.234375 L 8.859375 0 L 4.953125 0 L 4.953125 -7.203125 L -0.4375 -15.328125 L 3.90625 -15.328125 L 6.921875 -10.53125 L 9.9375 -15.328125 Z M 14.234375 -15.328125 "/></g></g></g></svg>