<svg xmlns="http://www.w3.org/2000/svg" xmlns:xlink="http://www.w3.org/1999/xlink" width="500" zoomAndPan="magnify" viewBox="0 0 375 374.999991" height="500" preserveAspectRatio="xMidYMid meet" version="1.0"><defs><g/><clipPath id="703b7e8170"><path d="M 109.640625 88.027344 L 265.640625 88.027344 L 265.640625 223 L 109.640625 223 Z M 109.640625 88.027344 " clip-rule="nonzero"/></clipPath></defs><g fill="#ffffff" fill-opacity="1"><g transform="translate(106.548315, 264.939767)"><g><path d="M 15.3125 -22.078125 L 21.59375 -22.078125 L 13.609375 0 L 7.328125 0 L -0.65625 -22.078125 L 5.671875 -22.078125 L 10.484375 -7.390625 Z M 15.3125 -22.078125 "/></g></g></g><g fill="#ffffff" fill-opacity="1"><g transform="translate(131.939337, 264.939767)"><g><path d="M 2.203125 0 L 2.203125 -22.078125 L 7.84375 -22.078125 L 7.84375 0 Z M 2.203125 0 "/></g></g></g><g fill="#ffffff" fill-opacity="1"><g transform="translate(146.364894, 264.939767)"><g><path d="M 12.578125 0.296875 C 11.015625 0.296875 9.546875 0.00390625 8.171875 -0.578125 C 6.796875 -1.171875 5.59375 -1.988281 4.5625 -3.03125 C 3.53125 -4.070312 2.71875 -5.273438 2.125 -6.640625 C 1.539062 -8.003906 1.25 -9.46875 1.25 -11.03125 C 1.25 -12.601562 1.539062 -14.070312 2.125 -15.4375 C 2.71875 -16.800781 3.53125 -18.003906 4.5625 -19.046875 C 5.59375 -20.085938 6.796875 -20.898438 8.171875 -21.484375 C 9.546875 -22.078125 11.015625 -22.375 12.578125 -22.375 C 14.765625 -22.375 16.757812 -21.800781 18.5625 -20.65625 C 20.363281 -19.519531 21.734375 -18.03125 22.671875 -16.1875 L 17.8125 -13.71875 C 17.34375 -14.675781 16.644531 -15.4375 15.71875 -16 C 14.800781 -16.570312 13.753906 -16.859375 12.578125 -16.859375 C 11.472656 -16.859375 10.476562 -16.601562 9.59375 -16.09375 C 8.71875 -15.59375 8.019531 -14.90625 7.5 -14.03125 C 6.988281 -13.164062 6.734375 -12.164062 6.734375 -11.03125 C 6.734375 -9.9375 6.988281 -8.945312 7.5 -8.0625 C 8.019531 -7.175781 8.71875 -6.476562 9.59375 -5.96875 C 10.476562 -5.46875 11.472656 -5.21875 12.578125 -5.21875 C 13.753906 -5.21875 14.800781 -5.5 15.71875 -6.0625 C 16.644531 -6.632812 17.34375 -7.398438 17.8125 -8.359375 L 22.671875 -5.890625 C 21.734375 -4.046875 20.363281 -2.550781 18.5625 -1.40625 C 16.757812 -0.269531 14.765625 0.296875 12.578125 0.296875 Z M 12.578125 0.296875 "/></g></g></g><g fill="#ffffff" fill-opacity="1"><g transform="translate(174.331695, 264.939767)"><g><path d="M 16.078125 -22.078125 L 16.078125 -17.1875 L 10.671875 -17.1875 L 10.671875 0 L 5.078125 0 L 5.078125 -17.1875 L -0.328125 -17.1875 L -0.328125 -22.078125 Z M 16.078125 -22.078125 "/></g></g></g><g fill="#ffffff" fill-opacity="1"><g transform="translate(194.497562, 264.939767)"><g><path d="M 12.578125 0.296875 C 11.015625 0.296875 9.546875 0.00390625 8.171875 -0.578125 C 6.796875 -1.171875 5.59375 -1.988281 4.5625 -3.03125 C 3.53125 -4.070312 2.71875 -5.273438 2.125 -6.640625 C 1.539062 -8.003906 1.25 -9.46875 1.25 -11.03125 C 1.25 -12.601562 1.539062 -14.070312 2.125 -15.4375 C 2.71875 -16.800781 3.53125 -18.003906 4.5625 -19.046875 C 5.59375 -20.085938 6.796875 -20.898438 8.171875 -21.484375 C 9.546875 -22.078125 11.015625 -22.375 12.578125 -22.375 C 14.148438 -22.375 15.617188 -22.078125 16.984375 -21.484375 C 18.347656 -20.898438 19.550781 -20.085938 20.59375 -19.046875 C 21.632812 -18.003906 22.445312 -16.800781 23.03125 -15.4375 C 23.625 -14.070312 23.921875 -12.601562 23.921875 -11.03125 C 23.921875 -9.46875 23.625 -8.003906 23.03125 -6.640625 C 22.445312 -5.273438 21.632812 -4.070312 20.59375 -3.03125 C 19.550781 -1.988281 18.347656 -1.171875 16.984375 -0.578125 C 15.617188 0.00390625 14.148438 0.296875 12.578125 0.296875 Z M 12.578125 -5.21875 C 13.679688 -5.21875 14.675781 -5.46875 15.5625 -5.96875 C 16.445312 -6.476562 17.140625 -7.175781 17.640625 -8.0625 C 18.140625 -8.945312 18.390625 -9.9375 18.390625 -11.03125 C 18.390625 -12.164062 18.140625 -13.164062 17.640625 -14.03125 C 17.140625 -14.90625 16.445312 -15.59375 15.5625 -16.09375 C 14.675781 -16.601562 13.679688 -16.859375 12.578125 -16.859375 C 11.472656 -16.859375 10.476562 -16.601562 9.59375 -16.09375 C 8.71875 -15.59375 8.019531 -14.90625 7.5 -14.03125 C 6.988281 -13.164062 6.734375 -12.164062 6.734375 -11.03125 C 6.734375 -9.9375 6.988281 -8.945312 7.5 -8.0625 C 8.019531 -7.175781 8.71875 -6.476562 9.59375 -5.96875 C 10.476562 -5.46875 11.472656 -5.21875 12.578125 -5.21875 Z M 12.578125 -5.21875 "/></g></g></g><g fill="#ffffff" fill-opacity="1"><g transform="translate(224.046628, 264.939767)"><g><path d="M 14.3125 -8.75 L 20.421875 0 L 14.09375 0 L 8.9375 -8.09375 L 7.65625 -8.09375 L 7.65625 0 L 2.03125 0 L 2.03125 -22.078125 L 11.84375 -22.078125 C 13.164062 -22.078125 14.335938 -21.765625 15.359375 -21.140625 C 16.378906 -20.515625 17.175781 -19.671875 17.75 -18.609375 C 18.332031 -17.554688 18.625 -16.394531 18.625 -15.125 C 18.625 -13.625 18.222656 -12.296875 17.421875 -11.140625 C 16.628906 -9.992188 15.59375 -9.195312 14.3125 -8.75 Z M 10.921875 -12.625 C 11.585938 -12.625 12.132812 -12.835938 12.5625 -13.265625 C 12.988281 -13.691406 13.203125 -14.238281 13.203125 -14.90625 C 13.203125 -15.5625 12.988281 -16.101562 12.5625 -16.53125 C 12.132812 -16.96875 11.585938 -17.1875 10.921875 -17.1875 L 7.65625 -17.1875 L 7.65625 -12.625 Z M 10.921875 -12.625 "/></g></g></g><g fill="#ffffff" fill-opacity="1"><g transform="translate(248.554516, 264.939767)"><g><path d="M 20.5 -22.078125 L 12.765625 -10.40625 L 12.765625 0 L 7.140625 0 L 7.140625 -10.375 L -0.625 -22.078125 L 5.625 -22.078125 L 9.96875 -15.15625 L 14.3125 -22.078125 Z M 20.5 -22.078125 "/></g></g></g><g fill="#ffffff" fill-opacity="1"><g transform="translate(119.583987, 282.378087)"><g><path d="M 6.796875 -9.765625 L 6.796875 -8.296875 L 4.203125 -8.296875 L 4.203125 0 L 2.625 0 L 2.625 -8.296875 L 0.03125 -8.296875 L 0.03125 -9.765625 Z M 6.796875 -9.765625 "/></g></g></g><g fill="#ffffff" fill-opacity="1"><g transform="translate(130.312987, 282.378087)"><g><path d="M 7 0 L 6.296875 -2.0625 L 2.3125 -2.0625 L 1.609375 0 L -0.109375 0 L 3.421875 -9.765625 L 5.203125 -9.765625 L 8.734375 0 Z M 2.78125 -3.46875 L 5.84375 -3.46875 L 4.3125 -8.03125 Z M 2.78125 -3.46875 "/></g></g></g><g fill="#ffffff" fill-opacity="1"><g transform="translate(142.832163, 282.378087)"><g><path d="M 5.734375 -5.28125 L 10.765625 -5.28125 L 10.765625 -4.890625 C 10.765625 -4.191406 10.632812 -3.539062 10.375 -2.9375 C 10.113281 -2.332031 9.75 -1.800781 9.28125 -1.34375 C 8.820312 -0.882812 8.289062 -0.523438 7.6875 -0.265625 C 7.09375 -0.00390625 6.445312 0.125 5.75 0.125 C 5.050781 0.125 4.398438 -0.00390625 3.796875 -0.265625 C 3.191406 -0.523438 2.660156 -0.882812 2.203125 -1.34375 C 1.742188 -1.800781 1.382812 -2.332031 1.125 -2.9375 C 0.863281 -3.539062 0.734375 -4.191406 0.734375 -4.890625 C 0.734375 -5.578125 0.863281 -6.222656 1.125 -6.828125 C 1.382812 -7.429688 1.742188 -7.960938 2.203125 -8.421875 C 2.660156 -8.890625 3.191406 -9.253906 3.796875 -9.515625 C 4.398438 -9.773438 5.050781 -9.90625 5.75 -9.90625 C 6.695312 -9.90625 7.5625 -9.660156 8.34375 -9.171875 C 9.125 -8.691406 9.722656 -8.0625 10.140625 -7.28125 L 8.78125 -6.546875 C 8.488281 -7.085938 8.078125 -7.519531 7.546875 -7.84375 C 7.015625 -8.164062 6.414062 -8.328125 5.75 -8.328125 C 5.101562 -8.328125 4.515625 -8.171875 3.984375 -7.859375 C 3.460938 -7.554688 3.050781 -7.144531 2.75 -6.625 C 2.445312 -6.113281 2.296875 -5.535156 2.296875 -4.890625 C 2.296875 -4.234375 2.445312 -3.644531 2.75 -3.125 C 3.050781 -2.613281 3.460938 -2.207031 3.984375 -1.90625 C 4.515625 -1.601562 5.101562 -1.453125 5.75 -1.453125 C 6.550781 -1.453125 7.253906 -1.679688 7.859375 -2.140625 C 8.460938 -2.609375 8.863281 -3.207031 9.0625 -3.9375 L 5.734375 -3.9375 Z M 5.734375 -5.28125 "/></g></g></g><g fill="#ffffff" fill-opacity="1"><g transform="translate(158.215633, 282.378087)"><g><path d="M 2.671875 -1.484375 L 6.109375 -1.484375 L 6.109375 0 L 1.078125 0 L 1.078125 -9.765625 L 2.671875 -9.765625 Z M 2.671875 -1.484375 "/></g></g></g><g fill="#ffffff" fill-opacity="1"><g transform="translate(168.309934, 282.378087)"><g><path d="M 1.15625 0 L 1.15625 -9.765625 L 2.75 -9.765625 L 2.75 0 Z M 1.15625 0 "/></g></g></g><g fill="#ffffff" fill-opacity="1"><g transform="translate(176.109546, 282.378087)"><g><path d="M 8.09375 -9.765625 L 9.671875 -9.765625 L 9.671875 0 L 8.078125 0 L 2.671875 -7.265625 L 2.671875 0 L 1.078125 0 L 1.078125 -9.765625 L 2.671875 -9.765625 L 8.09375 -2.53125 Z M 8.09375 -9.765625 "/></g></g></g><g fill="#ffffff" fill-opacity="1"><g transform="translate(190.760677, 282.378087)"><g><path d="M 6.765625 -8.328125 L 2.75 -8.328125 L 2.75 -5.625 L 6.21875 -5.625 L 6.21875 -4.15625 L 2.75 -4.15625 L 2.75 -1.453125 L 6.765625 -1.453125 L 6.765625 0 L 1.15625 0 L 1.15625 -9.765625 L 6.765625 -9.765625 Z M 6.765625 -8.328125 "/></g></g></g><g fill="#ffffff" fill-opacity="1"><g transform="translate(202.254567, 282.378087)"><g/></g></g><g fill="#ffffff" fill-opacity="1"><g transform="translate(210.070452, 282.378087)"><g><path d="M 7.34375 -9.765625 L 8.9375 -9.765625 L 8.9375 0 L 7.34375 0 L 7.34375 -4.15625 L 2.671875 -4.15625 L 2.671875 0 L 1.078125 0 L 1.078125 -9.765625 L 2.671875 -9.765625 L 2.671875 -5.640625 L 7.34375 -5.640625 Z M 7.34375 -9.765625 "/></g></g></g><g fill="#ffffff" fill-opacity="1"><g transform="translate(223.98923, 282.378087)"><g><path d="M 6.765625 -8.328125 L 2.75 -8.328125 L 2.75 -5.625 L 6.21875 -5.625 L 6.21875 -4.15625 L 2.75 -4.15625 L 2.75 -1.453125 L 6.765625 -1.453125 L 6.765625 0 L 1.15625 0 L 1.15625 -9.765625 L 6.765625 -9.765625 Z M 6.765625 -8.328125 "/></g></g></g><g fill="#ffffff" fill-opacity="1"><g transform="translate(235.483114, 282.378087)"><g><path d="M 5.609375 -4.25 L 8.40625 0 L 6.609375 0 L 4.015625 -4.109375 L 2.671875 -4.109375 L 2.671875 0 L 1.078125 0 L 1.078125 -9.765625 L 4.90625 -9.765625 C 5.4375 -9.765625 5.910156 -9.640625 6.328125 -9.390625 C 6.753906 -9.140625 7.09375 -8.796875 7.34375 -8.359375 C 7.59375 -7.921875 7.71875 -7.4375 7.71875 -6.90625 C 7.71875 -6.238281 7.515625 -5.660156 7.109375 -5.171875 C 6.710938 -4.691406 6.210938 -4.382812 5.609375 -4.25 Z M 2.671875 -5.484375 L 4.703125 -5.484375 C 5.117188 -5.484375 5.460938 -5.613281 5.734375 -5.875 C 6.015625 -6.132812 6.15625 -6.472656 6.15625 -6.890625 C 6.15625 -7.304688 6.015625 -7.644531 5.734375 -7.90625 C 5.460938 -8.164062 5.117188 -8.296875 4.703125 -8.296875 L 2.671875 -8.296875 Z M 2.671875 -5.484375 "/></g></g></g><g fill="#ffffff" fill-opacity="1"><g transform="translate(247.823266, 282.378087)"><g><path d="M 6.765625 -8.328125 L 2.75 -8.328125 L 2.75 -5.625 L 6.21875 -5.625 L 6.21875 -4.15625 L 2.75 -4.15625 L 2.75 -1.453125 L 6.765625 -1.453125 L 6.765625 0 L 1.15625 0 L 1.15625 -9.765625 L 6.765625 -9.765625 Z M 6.765625 -8.328125 "/></g></g></g><g clip-path="url(#703b7e8170)"><path fill="#ffffff" d="M 236.464844 138.058594 L 265.339844 88.027344 L 216.371094 88.027344 L 187.492188 138.058594 L 158.617188 88.027344 L 109.648438 88.027344 L 163.007812 180.4375 L 187.492188 222.851562 L 211.980469 180.4375 L 187.492188 138.058594 Z M 236.464844 138.058594 " fill-opacity="1" fill-rule="evenodd"/></g></svg>